<svg xmlns="http://www.w3.org/2000/svg" viewBox="0 0 64 64" role="img" aria-labelledby="title">
  <title>Medical favicon</title>
  <defs>
    <linearGradient id="bg" x1="10" y1="8" x2="54" y2="56" gradientUnits="userSpaceOnUse">
      <stop offset="0" stop-color="#0f9d8a" />
      <stop offset="1" stop-color="#0a6c78" />
    </linearGradient>
  </defs>
  <rect x="4" y="4" width="56" height="56" rx="16" fill="url(#bg)" />
  <path
    d="M28 15c0-1.657 1.343-3 3-3h2c1.657 0 3 1.343 3 3v10h10c1.657 0 3 1.343 3 3v2c0 1.657-1.343 3-3 3H36v10c0 1.657-1.343 3-3 3h-2c-1.657 0-3-1.343-3-3V33H18c-1.657 0-3-1.343-3-3v-2c0-1.657 1.343-3 3-3h10V15Z"
    fill="#f7fbfc"
  />
  <path
    d="M12 39h11l3-5 4 12 5-14 3 7h14"
    fill="none"
    stroke="#ff6b6b"
    stroke-linecap="round"
    stroke-linejoin="round"
    stroke-width="3.5"
  />
</svg>
